<svg width="0" height="0" style="position:absolute" xmlns="http://www.w3.org/2000/svg" xmlns:xlink="http://www.w3.org/1999/xlink"><symbol viewBox="0 0 32 32" id="x-icon_moon"><path d="M21.837 17.831A5.5 5.5 0 1 1 16.255 11a4.5 4.5 0 0 0 5.74 5.74c-.017.375-.07.74-.159 1.091z"/></symbol><symbol viewBox="0 0 32 32" id="x-icon_sun"><path d="M16.53 22a5.5 5.5 0 1 0 0-11 5.5 5.5 0 0 0 0 11zm0-15c-.277 0-.5.216-.5.495v2.01c0 .273.231.495.5.495.275 0 .5-.216.5-.495v-2.01a.503.503 0 0 0-.5-.495zm6.737 2.791a.494.494 0 0 0-.704-.003l-1.42 1.42a.503.503 0 0 0 .003.704.494.494 0 0 0 .704.004l1.42-1.421a.503.503 0 0 0-.003-.704zm2.791 6.738c0-.276-.216-.5-.495-.5h-2.01a.503.503 0 0 0-.495.5c0 .276.216.5.496.5h2.009a.503.503 0 0 0 .495-.5zm-2.79 6.738a.494.494 0 0 0 .002-.704l-1.42-1.42a.503.503 0 0 0-.704.003.494.494 0 0 0-.003.704l1.42 1.42a.503.503 0 0 0 .704-.003zm-6.739 2.791c.276 0 .5-.216.5-.495v-2.01a.503.503 0 0 0-.5-.495c-.276 0-.5.216-.5.496v2.009c0 .273.232.495.5.495zm-6.738-2.79a.494.494 0 0 0 .704.002l1.42-1.42a.503.503 0 0 0-.003-.704.494.494 0 0 0-.703-.003l-1.421 1.42a.503.503 0 0 0 .003.704zM7 16.528c0 .276.216.5.495.5h2.01a.503.503 0 0 0 .495-.5c0-.276-.216-.5-.495-.5h-2.01a.503.503 0 0 0-.495.5zm2.791-6.738a.494.494 0 0 0-.003.704l1.42 1.42a.503.503 0 0 0 .704-.003.494.494 0 0 0 .004-.703l-1.421-1.421a.503.503 0 0 0-.704.003z"/></symbol></svg>